<?xml version="1.0" encoding="UTF-8"?>
<svg id="Layer_1" data-name="Layer 1" xmlns="http://www.w3.org/2000/svg" viewBox="0 0 420.06 191.12">
  <defs>
    <style>
      .cls-1 {
        fill: #cc4c27;
      }
    </style>
  </defs>
  <g>
    <path class="cls-1" d="M13.44,147.66c0,3.11-1.87,5.5-5.84,5.5-3.74,0-5.71-2.2-5.71-5.54v-9.66h1.89v9.72c0,2.44,1.3,3.84,3.93,3.84s3.86-1.6,3.86-3.86v-9.7h1.87v9.7Z"/>
    <path class="cls-1" d="M27.02,152.95l-8.02-12.45h-.08c.06,.99,.17,2.54,.17,4.07v8.38h-1.74v-14.99h2.18l8,12.41h.08c-.04-.67-.15-2.58-.15-3.95v-8.46h1.76v14.99h-2.2Z"/>
    <path class="cls-1" d="M32.07,152.95l.63-1.68h1.13v-11.65h-1.76v-1.66h5.42l-.63,1.66h-1.13v11.65h1.76v1.68h-5.42Z"/>
    <path class="cls-1" d="M48.87,148.31h-5.94l-1.79,4.64h-1.91l5.86-15.05h1.7l5.84,15.05h-1.95l-1.81-4.64Zm-4.51-14.51c1.24,0,2.31,1.2,3.19,1.2,.65,0,.94-.4,1.15-1.22h1.05c-.17,1.64-.97,2.69-2.29,2.69-1.18,0-2.27-1.2-3.19-1.2-.67,0-.97,.4-1.16,1.22h-1.07c.17-1.66,.99-2.69,2.31-2.69Zm2.27,8.29c-.13-.34-.57-1.72-.71-2.25-.21,.86-.48,1.76-.65,2.25l-1.7,4.54h4.75l-1.68-4.54Z"/>
    <path class="cls-1" d="M60.55,153.16c-4.68,0-6.93-3.11-6.93-7.75s2.25-7.69,6.95-7.69,6.89,3.04,6.89,7.71-2.39,7.73-6.91,7.73Zm0-1.64c3.4,0,4.91-2.31,4.91-6.09s-1.51-6.05-4.89-6.05-4.96,2.27-4.96,6.05,1.55,6.09,4.93,6.09Z"/>
    <path class="cls-1" d="M86.04,142.37c0,2.48-1.49,4.74-5.98,4.74h-1.72v5.84h-1.89v-14.99h3.97c3.93,0,5.63,1.62,5.63,4.41Zm-7.71-2.79v5.92h1.51c2.86,0,4.24-.84,4.24-3.04,0-1.93-1.2-2.88-3.84-2.88h-1.91Z"/>
    <path class="cls-1" d="M95.36,153.16c-4.68,0-6.93-3.11-6.93-7.75s2.25-7.69,6.95-7.69,6.89,3.04,6.89,7.71-2.39,7.73-6.91,7.73Zm0-1.64c3.4,0,4.91-2.31,4.91-6.09s-1.51-6.05-4.89-6.05-4.96,2.27-4.96,6.05,1.55,6.09,4.93,6.09Z"/>
    <path class="cls-1" d="M115.16,142.22c0,2.39-1.49,3.48-3,4.01l4.12,6.72h-2.21l-3.63-6.19h-2.98v6.19h-1.89v-14.99h4.14c3.72,0,5.46,1.41,5.46,4.26Zm-7.71-2.62v5.56h2.25c2.44,0,3.51-.97,3.51-2.86s-1.16-2.71-3.61-2.71h-2.14Z"/>
    <path class="cls-1" d="M121.73,152.95v-13.33h-4.68l.63-1.66h10.6v1.66h-4.66v13.33h-1.89Z"/>
    <path class="cls-1" d="M142.19,147.66c0,3.11-1.87,5.5-5.84,5.5-3.74,0-5.71-2.2-5.71-5.54v-9.66h1.89v9.72c0,2.44,1.3,3.84,3.93,3.84s3.86-1.6,3.86-3.86v-9.7h1.87v9.7Z"/>
    <path class="cls-1" d="M157.78,145.03v7.35c-1.62,.52-3.17,.78-5.27,.78-4.66,0-7.18-2.96-7.18-7.71s2.86-7.71,7.77-7.71c1.68,0,3.19,.34,4.47,.88l-.63,1.66c-1.07-.46-2.52-.88-3.95-.88-3.59,0-5.69,2.31-5.69,6.05s1.62,6.07,5.65,6.07c1.32,0,2.18-.17,2.94-.36v-4.45h-3.3l.63-1.68h4.56Z"/>
    <path class="cls-1" d="M172.71,147.66c0,3.11-1.87,5.5-5.84,5.5-3.74,0-5.71-2.2-5.71-5.54v-9.66h1.89v9.72c0,2.44,1.3,3.84,3.93,3.84s3.86-1.6,3.86-3.86v-9.7h1.87v9.7Z"/>
    <path class="cls-1" d="M176.62,152.95v-14.99h8.38v1.66h-6.49v4.68h5.63v1.64h-5.63v5.36h6.95l-.63,1.66h-8.21Z"/>
    <path class="cls-1" d="M191.77,153.16c-1.68,0-3.17-.25-4.12-.71l.59-1.55c.65,.29,2.02,.63,3.61,.63,2.23,0,3.38-.92,3.38-2.41s-.82-2.1-3.53-3.09c-2.56-.92-3.86-2.12-3.86-4.45s1.95-3.82,4.79-3.82c1.64,0,3,.34,4.14,.84l-.61,1.62c-1.05-.44-2.27-.8-3.57-.8-1.87,0-2.83,.88-2.83,2.18,0,1.51,.84,2.12,3.28,3.02,2.65,.99,4.09,1.97,4.09,4.33,0,2.67-2.08,4.22-5.35,4.22Z"/>
    <path class="cls-1" d="M208.14,148.31h-5.94l-1.78,4.64h-1.91l5.86-15.05h1.7l5.84,15.05h-1.95l-1.81-4.64Zm-2.25-6.21c-.13-.34-.57-1.72-.71-2.25-.21,.86-.48,1.76-.65,2.25l-1.7,4.54h4.75l-1.68-4.54Z"/>
    <path class="cls-1" d="M223.81,152.95h-4.18v-14.99h4.62c4.51,0,7.39,2.54,7.39,7.35,0,5.06-2.9,7.64-7.83,7.64Zm.17-13.38h-2.46v11.76h2.04c4.05,0,6.09-2.02,6.09-5.96s-2.06-5.79-5.67-5.79Z"/>
    <path class="cls-1" d="M241.16,153.16c-4.68,0-6.93-3.11-6.93-7.75s2.25-7.69,6.95-7.69,6.89,3.04,6.89,7.71-2.39,7.73-6.91,7.73Zm0-1.64c3.4,0,4.91-2.31,4.91-6.09s-1.51-6.05-4.89-6.05-4.96,2.27-4.96,6.05,1.55,6.09,4.93,6.09Z"/>
    <path class="cls-1" d="M254.51,153.16c-1.68,0-3.17-.25-4.12-.71l.59-1.55c.65,.29,2.02,.63,3.61,.63,2.23,0,3.38-.92,3.38-2.41s-.82-2.1-3.53-3.09c-2.56-.92-3.86-2.12-3.86-4.45s1.95-3.82,4.79-3.82c1.64,0,3,.34,4.14,.84l-.61,1.62c-1.05-.44-2.27-.8-3.57-.8-1.87,0-2.83,.88-2.83,2.18,0,1.51,.84,2.12,3.28,3.02,2.65,.99,4.09,1.97,4.09,4.33,0,2.67-2.08,4.22-5.35,4.22Z"/>
    <path class="cls-1" d="M9.64,178.31H3.7l-1.79,4.64H0l5.86-15.05h1.7l5.84,15.05h-1.95l-1.81-4.64Zm-2.25-6.21c-.13-.34-.57-1.72-.71-2.25-.21,.86-.48,1.76-.65,2.25l-1.7,4.54h4.75l-1.68-4.54Z"/>
    <path class="cls-1" d="M19.92,182.95h-4.18v-14.99h4.62c4.51,0,7.39,2.54,7.39,7.35,0,5.06-2.9,7.64-7.83,7.64Zm.17-13.38h-2.46v11.76h2.04c4.05,0,6.09-2.02,6.09-5.96s-2.06-5.79-5.67-5.79Z"/>
    <path class="cls-1" d="M36.02,182.95h-1.89l-5.35-14.99h1.97l3.38,9.62c.44,1.24,.73,2.29,.94,3.28,.19-.99,.5-2.06,.95-3.32l3.36-9.57h1.99l-5.35,14.99Z"/>
    <path class="cls-1" d="M43.63,182.95v-14.99h8.38v1.66h-6.49v4.68h5.63v1.64h-5.63v5.36h6.95l-.63,1.66h-8.21Z"/>
    <path class="cls-1" d="M64.86,182.95l-8.02-12.45h-.08c.06,.99,.17,2.54,.17,4.07v8.38h-1.74v-14.99h2.18l8,12.41h.08c-.04-.67-.15-2.58-.15-3.95v-8.46h1.76v14.99h-2.2Z"/>
    <path class="cls-1" d="M74.18,182.95v-13.33h-4.68l.63-1.66h10.6v1.66h-4.66v13.33h-1.89Z"/>
    <path class="cls-1" d="M82.58,182.95l.63-1.68h1.13v-11.65h-1.76v-1.66h5.42l-.63,1.66h-1.13v11.65h1.76v1.68h-5.42Z"/>
    <path class="cls-1" d="M94.48,183.16c-1.68,0-3.17-.25-4.12-.71l.59-1.55c.65,.29,2.02,.63,3.61,.63,2.23,0,3.38-.92,3.38-2.41s-.82-2.1-3.53-3.09c-2.56-.92-3.86-2.12-3.86-4.45s1.95-3.82,4.79-3.82c1.64,0,3,.34,4.14,.84l-.61,1.62c-1.05-.44-2.27-.8-3.57-.8-1.87,0-2.83,.88-2.83,2.18,0,1.51,.84,2.12,3.28,3.02,2.65,.99,4.09,1.97,4.09,4.33,0,2.67-2.08,4.22-5.35,4.22Z"/>
    <path class="cls-1" d="M106.24,182.95v-13.33h-4.68l.63-1.66h10.6v1.66h-4.66v13.33h-1.89Z"/>
    <path class="cls-1" d="M121.49,178.31h-5.94l-1.79,4.64h-1.91l5.86-15.05h1.7l5.84,15.05h-1.95l-1.81-4.64Zm-2.25-6.21c-.13-.34-.57-1.72-.71-2.25-.21,.86-.48,1.76-.65,2.25l-1.7,4.54h4.75l-1.68-4.54Z"/>
    <path class="cls-1" d="M131.3,183.16c-1.68,0-3.17-.25-4.12-.71l.59-1.55c.65,.29,2.02,.63,3.61,.63,2.23,0,3.38-.92,3.38-2.41s-.82-2.1-3.53-3.09c-2.56-.92-3.86-2.12-3.86-4.45s1.95-3.82,4.79-3.82c1.64,0,3,.34,4.14,.84l-.61,1.62c-1.05-.44-2.27-.8-3.57-.8-1.87,0-2.83,.88-2.83,2.18,0,1.51,.84,2.12,3.28,3.02,2.65,.99,4.09,1.97,4.09,4.33,0,2.67-2.08,4.22-5.35,4.22Z"/>
    <path class="cls-1" d="M149.73,182.95h-4.18v-14.99h4.62c4.51,0,7.39,2.54,7.39,7.35,0,5.06-2.9,7.64-7.83,7.64Zm.17-13.38h-2.46v11.76h2.04c4.05,0,6.09-2.02,6.09-5.96s-2.06-5.79-5.67-5.79Z"/>
    <path class="cls-1" d="M167.09,183.16c-4.68,0-6.93-3.11-6.93-7.75s2.25-7.69,6.95-7.69,6.89,3.04,6.89,7.71-2.39,7.73-6.91,7.73Zm0-1.64c3.4,0,4.91-2.31,4.91-6.09s-1.51-6.05-4.89-6.05-4.96,2.27-4.96,6.05,1.55,6.09,4.93,6.09Z"/>
    <path class="cls-1" d="M186.34,183.16c-1.68,0-3.17-.25-4.12-.71l.59-1.55c.65,.29,2.02,.63,3.61,.63,2.23,0,3.38-.92,3.38-2.41s-.82-2.1-3.53-3.09c-2.56-.92-3.86-2.12-3.86-4.45s1.95-3.82,4.79-3.82c1.64,0,3,.34,4.14,.84l-.61,1.62c-1.05-.44-2.27-.8-3.57-.8-1.87,0-2.83,.88-2.83,2.18,0,1.51,.84,2.12,3.28,3.02,2.65,.99,4.09,1.97,4.09,4.33,0,2.67-2.08,4.22-5.35,4.22Z"/>
    <path class="cls-1" d="M194.66,182.95v-14.99h8.38v1.66h-6.49v4.68h5.63v1.64h-5.63v5.36h6.95l-.63,1.66h-8.21Zm7.33-19.61c-.52,.78-2.02,2.39-3,3.15h-1.22v-.25c.61-.78,1.51-2.16,1.99-3.11h2.23v.21Z"/>
    <path class="cls-1" d="M209.77,182.95v-13.33h-4.68l.63-1.66h10.6v1.66h-4.66v13.33h-1.89Z"/>
    <path class="cls-1" d="M218.16,182.95l.63-1.68h1.13v-11.65h-1.76v-1.66h5.42l-.63,1.66h-1.13v11.65h1.76v1.68h-5.42Z"/>
    <path class="cls-1" d="M228.1,169.81h-.08c.08,.86,.15,2.46,.15,4.05v9.09h-1.74v-14.99h2.79l4.62,12.28h.08l4.7-12.28h2.77v14.99h-1.87v-9.22c0-1.45,.08-3,.15-3.91h-.08l-5,13.12h-1.55l-4.93-13.14Z"/>
    <path class="cls-1" d="M251.65,183.16c-4.68,0-6.93-3.11-6.93-7.75s2.25-7.69,6.95-7.69,6.89,3.04,6.89,7.71-2.39,7.73-6.91,7.73Zm0-1.64c3.4,0,4.91-2.31,4.91-6.09s-1.51-6.05-4.89-6.05-4.96,2.27-4.96,6.05,1.55,6.09,4.93,6.09Z"/>
    <path class="cls-1" d="M271.73,182.95h-4.18v-14.99h4.62c4.51,0,7.39,2.54,7.39,7.35,0,5.06-2.9,7.64-7.83,7.64Zm.17-13.38h-2.46v11.76h2.04c4.05,0,6.09-2.02,6.09-5.96s-2.06-5.79-5.67-5.79Z"/>
    <path class="cls-1" d="M281.44,182.95l.63-1.68h1.13v-11.65h-1.76v-1.66h5.42l-.63,1.66h-1.13v11.65h1.76v1.68h-5.42Z"/>
    <path class="cls-1" d="M298.24,178.31h-5.94l-1.78,4.64h-1.91l5.86-15.05h1.7l5.84,15.05h-1.95l-1.81-4.64Zm-2.25-6.21c-.13-.34-.57-1.72-.71-2.25-.21,.86-.48,1.76-.65,2.25l-1.7,4.54h4.75l-1.68-4.54Z"/>
  </g>
  <g>
    <path class="cls-1" d="M1.89,47.95l1.68-4.48h3.02V12.42H1.89V8h14.44l-1.68,4.42h-3.02v31.05h4.7v4.48H1.89Z"/>
    <path class="cls-1" d="M18.62,53.04c0-3.86,2.18-6.32,6.55-7.39-1.73-.84-2.63-2.29-2.63-4.2,0-2.07,1.23-3.81,3.64-5.26-3.41-1.4-5.2-4.98-5.2-8.45,0-6.99,4.36-10.35,11.19-10.35,1.57,0,2.91,.17,4.08,.56h10.35l-1.46,3.8h-3.92c1.17,1.57,1.79,3.53,1.79,5.82,0,6.21-4.53,9.62-11.02,9.62-1.01,0-1.79-.06-2.35-.17-1.85,1.01-2.74,2.24-2.74,3.64,0,1.51,1.51,2.29,4.42,2.29h5.09c6.04,0,9.79,2.74,9.79,8.11,0,6.88-5.15,10.29-15.44,10.29-6.99,0-12.14-2.41-12.14-8.34Zm22.88-1.51c0-1.62-.45-2.69-1.34-3.25-.95-.56-2.74-.84-5.43-.84h-5.15c-4.2,0-6.27,1.79-6.27,5.43,0,3.13,2.46,4.76,7.39,4.76,7.22,0,10.8-2.01,10.8-6.1Zm-3.36-24c0-4.37-2.07-6.55-6.15-6.55s-6.16,2.24-6.16,6.6,2.07,6.21,6.21,6.21,6.1-2.13,6.1-6.27Z"/>
    <path class="cls-1" d="M68.86,17.73l-.62,4.53c-.95-.22-2.24-.39-3.25-.39-4.64,0-8.73,4.03-8.73,10.07v16h-4.92V17.96h4.03l.56,5.48h.22c1.9-3.3,4.98-6.04,9.18-6.04,1.12,0,2.52,.11,3.53,.34Z"/>
    <path class="cls-1" d="M96.17,30.94v2.96h-20.54c.17,6.77,3.58,10.41,9.57,10.41,2.91,0,5.88-.56,8.23-1.46l1.4,3.69c-3.08,1.34-5.76,1.96-9.85,1.96-8.56,0-14.44-5.32-14.44-15.33s5.32-15.78,13.26-15.78,12.37,5.37,12.37,13.54Zm-20.42-.95h15.28c-.06-5.09-2.29-8.56-7.27-8.56-4.7,0-7.5,3.19-8,8.56Z"/>
    <path class="cls-1" d="M98.74,57.29c3.19-1.46,3.92-3.58,3.92-8.9V17.96h4.92v30.72c0,5.88-1.57,10.52-7.27,12.7l-1.57-4.08Zm6.43-50.58c1.51,0,2.85,.95,2.85,3.13s-1.34,3.13-2.85,3.13c-1.62,0-2.91-1.01-2.91-3.13s1.29-3.13,2.91-3.13Z"/>
    <path class="cls-1" d="M138.07,27.53v20.42h-3.58l-.95-4.25h-.22c-2.63,3.3-5.04,4.81-10.07,4.81-5.43,0-9.46-2.8-9.46-8.9s4.59-9.29,14.38-9.57l5.09-.17v-1.79c0-4.98-2.29-6.66-6.21-6.66-3.13,0-5.99,1.12-8.45,2.29l-1.51-3.69c2.63-1.4,6.32-2.57,10.24-2.57,7.27,0,10.74,3.08,10.74,10.07Zm-9.29,5.93c-7.5,.28-9.9,2.41-9.9,6.21,0,3.36,2.24,4.87,5.48,4.87,5.04,0,8.84-2.74,8.84-8.56v-2.69l-4.42,.17Z"/>
    <path class="cls-1" d="M180.59,35.58h-15.83l-4.76,12.37h-5.09l15.61-40.12h4.53l15.56,40.12h-5.2l-4.81-12.37Zm-5.99-16.56c-.34-.9-1.51-4.59-1.9-5.99-.56,2.29-1.29,4.7-1.74,5.99l-4.53,12.09h12.65l-4.48-12.09Z"/>
    <path class="cls-1" d="M193.18,33.01c0-10.3,4.92-15.61,12.37-15.61,4.64,0,7.44,1.96,9.29,4.42h.34c-.11-.95-.34-3.3-.34-4.42V7.33l4.92-1.9V47.95h-3.97l-.73-4.03h-.22c-1.79,2.57-4.64,4.59-9.34,4.59-7.44,0-12.31-5.2-12.31-15.5Zm21.71,.95v-.9c0-7.44-2.01-11.58-8.67-11.58-5.32,0-7.95,4.53-7.95,11.64s2.63,11.3,8,11.3c6.32,0,8.62-3.47,8.62-10.46Z"/>
    <path class="cls-1" d="M223.95,17.96h5.26l6.38,17.68c.89,2.46,2.07,6.1,2.41,7.95h.22c.39-1.85,1.68-5.54,2.52-7.95l6.38-17.68h5.26l-11.42,29.99h-5.65l-11.36-29.99Z"/>
    <path class="cls-1" d="M279.96,30.94v2.96h-20.54c.17,6.77,3.58,10.41,9.57,10.41,2.91,0,5.88-.56,8.23-1.46l1.4,3.69c-3.08,1.34-5.76,1.96-9.85,1.96-8.56,0-14.44-5.32-14.44-15.33s5.32-15.78,13.26-15.78,12.37,5.37,12.37,13.54Zm-20.42-.95h15.28c-.06-5.09-2.29-8.56-7.27-8.56-4.7,0-7.5,3.19-8,8.56Z"/>
    <path class="cls-1" d="M311.74,28.42v19.53h-4.87V28.76c0-4.81-2.13-7.22-6.71-7.22-6.66,0-8.79,3.86-8.79,10.85v15.56h-4.92V17.96h3.97l.73,4.08h.28c1.96-3.13,5.65-4.64,9.46-4.64,7.16,0,10.85,3.3,10.85,11.02Z"/>
    <path class="cls-1" d="M331.77,43.75l1.34,3.52c-1.06,.67-3.19,1.23-5.48,1.23-4.7,0-8.79-2.01-8.79-9.29V12.92l4.92-1.85v6.88h8.67v3.8h-8.67v17.35c0,3.64,1.96,5.37,4.7,5.37,1.12,0,2.63-.39,3.3-.73Z"/>
    <path class="cls-1" d="M342.9,9.84c0,2.13-1.34,3.13-2.85,3.13-1.62,0-2.91-1.01-2.91-3.13s1.29-3.13,2.91-3.13c1.51,0,2.85,.95,2.85,3.13Zm-.45,38.1h-4.92V17.96h4.92v29.99Z"/>
    <path class="cls-1" d="M358.4,48.51c-4.2,0-7.11-.67-9.4-1.9l1.46-3.8c1.96,.84,5.2,1.73,8.06,1.73,4.98,0,7.11-1.73,7.11-4.42,0-2.24-1.51-3.58-7.39-5.82-5.82-2.24-9.29-4.03-9.29-8.95s4.53-7.95,11.25-7.95c3.64,0,6.77,.78,9.57,2.01l-1.51,3.97c-2.57-1.12-5.48-1.96-8.39-1.96-4.03,0-6.21,1.4-6.21,3.64,0,2.52,1.96,3.52,7.72,5.71,5.71,2.13,9.01,4.08,9.01,8.9,0,5.82-4.64,8.84-11.97,8.84Z"/>
    <path class="cls-1" d="M388.22,43.75l1.34,3.52c-1.06,.67-3.19,1.23-5.48,1.23-4.7,0-8.78-2.01-8.78-9.29V12.92l4.92-1.85v6.88h8.67v3.8h-8.67v17.35c0,3.64,1.96,5.37,4.7,5.37,1.12,0,2.63-.39,3.3-.73Z"/>
    <path class="cls-1" d="M416.09,27.53v20.42h-3.58l-.95-4.25h-.22c-2.63,3.3-5.04,4.81-10.07,4.81-5.43,0-9.46-2.8-9.46-8.9s4.59-9.29,14.38-9.57l5.09-.17v-1.79c0-4.98-2.29-6.66-6.21-6.66-3.13,0-5.99,1.12-8.45,2.29l-1.51-3.69c2.63-1.4,6.32-2.57,10.24-2.57,7.27,0,10.74,3.08,10.74,10.07Zm-9.29,5.93c-7.5,.28-9.9,2.41-9.9,6.21,0,3.36,2.24,4.87,5.48,4.87,5.04,0,8.84-2.74,8.84-8.56v-2.69l-4.42,.17Z"/>
    <path class="cls-1" d="M3.29,93.01c0-10.3,4.92-15.61,12.37-15.61,4.64,0,7.44,1.96,9.29,4.42h.34c-.11-.95-.34-3.3-.34-4.42v-10.07l4.92-1.9v42.53h-3.97l-.73-4.03h-.22c-1.79,2.57-4.64,4.59-9.34,4.59-7.44,0-12.31-5.2-12.31-15.5Zm21.71,.95v-.9c0-7.44-2.01-11.58-8.67-11.58-5.32,0-7.95,4.53-7.95,11.64s2.63,11.3,8,11.3c6.32,0,8.62-3.47,8.62-10.46Z"/>
    <path class="cls-1" d="M50.9,108.51c-7.95,0-13.76-5.65-13.76-15.61s5.32-15.5,13.93-15.5c8.11,0,13.82,5.6,13.82,15.5s-5.43,15.61-13.99,15.61Zm.11-4.08c6.04,0,8.79-4.42,8.79-11.53s-2.74-11.36-8.84-11.36-8.73,4.25-8.73,11.36,2.69,11.53,8.78,11.53Z"/>
    <path class="cls-1" d="M94.6,108.51c-4.48,0-8.45-.67-10.97-1.9l1.57-4.14c1.73,.78,5.37,1.68,9.62,1.68,5.93,0,9.01-2.46,9.01-6.44s-2.18-5.6-9.4-8.23c-6.83-2.46-10.3-5.65-10.3-11.86s5.2-10.18,12.76-10.18c4.36,0,8,.9,11.02,2.24l-1.62,4.31c-2.8-1.17-6.04-2.13-9.51-2.13-4.98,0-7.55,2.35-7.55,5.82,0,4.03,2.24,5.65,8.73,8.06,7.05,2.63,10.91,5.26,10.91,11.53,0,7.11-5.54,11.25-14.27,11.25Z"/>
    <path class="cls-1" d="M139.64,90.94v2.96h-20.54c.17,6.77,3.58,10.41,9.57,10.41,2.91,0,5.88-.56,8.23-1.46l1.4,3.69c-3.08,1.34-5.76,1.96-9.85,1.96-8.56,0-14.44-5.31-14.44-15.33s5.32-15.78,13.26-15.78,12.37,5.37,12.37,13.54Zm-20.42-.95h15.28c-.06-5.09-2.29-8.56-7.27-8.56-4.7,0-7.5,3.19-8,8.56Zm15.56-24.34c-1.4,2.07-5.37,6.38-8,8.39h-3.25v-.67c1.62-2.07,4.03-5.76,5.32-8.28h5.93v.56Z"/>
    <path class="cls-1" d="M157.99,103.75l1.34,3.53c-1.06,.67-3.19,1.23-5.48,1.23-4.7,0-8.78-2.01-8.78-9.29v-26.3l4.92-1.85v6.88h8.67v3.8h-8.67v17.35c0,3.64,1.96,5.37,4.7,5.37,1.12,0,2.63-.39,3.3-.73Z"/>
    <path class="cls-1" d="M169.12,69.84c0,2.13-1.34,3.13-2.85,3.13-1.62,0-2.91-1.01-2.91-3.13s1.29-3.13,2.91-3.13c1.51,0,2.85,.95,2.85,3.13Zm-.45,38.1h-4.92v-29.99h4.92v29.99Z"/>
    <path class="cls-1" d="M220.1,88.42v19.53h-4.87v-19.3c0-4.7-1.96-7.11-6.1-7.11-5.82,0-8.11,3.47-8.11,9.85v16.56h-4.87v-19.3c0-4.7-1.96-7.11-6.16-7.11-6.04,0-8,3.86-8,10.85v15.56h-4.92v-29.99h3.97l.73,4.08h.28c1.85-3.13,5.26-4.64,8.84-4.64,4.59,0,7.72,1.62,9.18,5.04h.28c2.01-3.41,5.71-5.04,9.62-5.04,6.77,0,10.13,3.3,10.13,11.02Z"/>
    <path class="cls-1" d="M240.35,108.51c-7.95,0-13.76-5.65-13.76-15.61s5.32-15.5,13.93-15.5c8.11,0,13.82,5.6,13.82,15.5s-5.43,15.61-13.99,15.61Zm.11-4.08c6.04,0,8.79-4.42,8.79-11.53s-2.74-11.36-8.84-11.36-8.73,4.25-8.73,11.36,2.69,11.53,8.78,11.53Z"/>
    <path class="cls-1" d="M286.23,107.95h-11.13v-39.95h12.31c12.03,0,19.7,6.77,19.7,19.58,0,13.48-7.72,20.37-20.87,20.37Zm.45-35.64h-6.55v31.33h5.43c10.8,0,16.23-5.37,16.23-15.89s-5.48-15.44-15.11-15.44Z"/>
    <path class="cls-1" d="M319.52,69.84c0,2.13-1.34,3.13-2.85,3.13-1.62,0-2.91-1.01-2.91-3.13s1.29-3.13,2.91-3.13c1.51,0,2.85,.95,2.85,3.13Zm-.45,38.1h-4.92v-29.99h4.92v29.99Z"/>
    <path class="cls-1" d="M349.56,87.53v20.42h-3.58l-.95-4.25h-.22c-2.63,3.3-5.04,4.81-10.07,4.81-5.43,0-9.46-2.8-9.46-8.9s4.59-9.29,14.38-9.57l5.09-.17v-1.79c0-4.98-2.29-6.66-6.21-6.66-3.13,0-5.99,1.12-8.45,2.29l-1.51-3.69c2.63-1.4,6.32-2.57,10.24-2.57,7.27,0,10.74,3.08,10.74,10.07Zm-9.29,5.93c-7.5,.28-9.9,2.41-9.9,6.21,0,3.36,2.24,4.87,5.48,4.87,5.04,0,8.84-2.74,8.84-8.56v-2.69l-4.42,.17Z"/>
  </g>
</svg>